<svg width="172" height="172" viewBox="0 0 172 172" fill="none" xmlns="http://www.w3.org/2000/svg">
<path d="M27.4635 17.1398H45.5303C47.1822 17.1398 48.7307 17.8624 49.6599 19.2045L79.083 58.4353L68.7591 110.055L99.7308 130.703L108.196 147.634C108.816 148.873 108.3 150.421 107.061 151.041C106.705 151.215 106.32 151.321 105.925 151.35H27.4635C21.7854 151.35 17.1396 146.705 17.1396 141.026V27.4637C17.1396 21.7855 21.7854 17.1398 27.4635 17.1398ZM104.17 58.745L127.399 66.488C128.947 67.0041 130.186 68.1398 130.702 69.6884L138.549 93.3301C139.478 96.0143 138.032 99.0082 135.245 99.8341L111.19 107.887C109.951 108.3 108.506 108.196 107.267 107.577L92.2975 100.041C91.2535 99.5273 90.4115 98.6789 89.9062 97.6309C89.401 96.5829 89.2615 95.3958 89.5101 94.2592L97.5627 62.3584C98.1822 59.5709 101.073 57.9191 103.757 58.6418C103.964 58.6418 104.067 58.6418 104.17 58.745ZM120.379 134.109V121.824C120.379 119.862 121.514 118.107 123.269 117.178L137.206 110.261C139.374 109.126 142.162 109.745 143.607 111.707L153.209 124.611C154.964 126.883 154.447 130.083 152.176 131.838C152.176 131.838 152.073 131.941 151.97 131.941L142.368 138.445C141.439 138.962 140.51 139.271 139.478 139.271H125.54C122.65 139.271 120.379 137 120.379 134.109Z" fill="white"/>
</svg>
