<svg width="172" height="172" viewBox="0 0 172 172" fill="none" xmlns="http://www.w3.org/2000/svg">
<path d="M32.9072 42.3351C32.9072 40.835 33.5031 39.3963 34.5639 38.3356C35.6246 37.2749 37.0632 36.679 38.5633 36.679H46.1048C47.6049 36.679 49.0436 37.2749 50.1043 38.3356C51.165 39.3963 51.7609 40.835 51.7609 42.3351C51.7609 43.8352 51.165 45.2738 50.1043 46.3345C49.0436 47.3953 47.6049 47.9912 46.1048 47.9912H38.5633C37.0632 47.9912 35.6246 47.3953 34.5639 46.3345C33.5031 45.2738 32.9072 43.8352 32.9072 42.3351ZM59.3024 42.3351C59.3024 40.835 59.8983 39.3963 60.9591 38.3356C62.0198 37.2749 63.4584 36.679 64.9585 36.679H72.5C74.0001 36.679 75.4388 37.2749 76.4995 38.3356C77.5602 39.3963 78.1561 40.835 78.1561 42.3351C78.1561 43.8352 77.5602 45.2738 76.4995 46.3345C75.4388 47.3953 74.0001 47.9912 72.5 47.9912H64.9585C63.4584 47.9912 62.0198 47.3953 60.9591 46.3345C59.8983 45.2738 59.3024 43.8352 59.3024 42.3351ZM130.026 95.3668L132.651 103.444C133.466 105.901 134.844 108.134 136.676 109.963C138.508 111.793 140.743 113.168 143.201 113.979L151.444 116.649C152.067 116.868 152.607 117.275 152.988 117.814C153.37 118.353 153.575 118.997 153.575 119.658C153.575 120.318 153.37 120.962 152.988 121.501C152.607 122.04 152.067 122.448 151.444 122.667L143.36 125.291C140.901 126.103 138.666 127.478 136.834 129.307C135.002 131.137 133.624 133.369 132.809 135.827L130.185 143.896C129.966 144.519 129.558 145.059 129.019 145.44C128.48 145.822 127.836 146.027 127.176 146.027C126.515 146.027 125.871 145.822 125.332 145.44C124.793 145.059 124.386 144.519 124.167 143.896L121.535 135.827C120.716 133.367 119.338 131.132 117.509 129.296C115.679 127.46 113.448 126.073 110.992 125.246L102.915 122.622C102.292 122.402 101.752 121.995 101.371 121.456C100.989 120.917 100.784 120.273 100.784 119.613C100.784 118.952 100.989 118.308 101.371 117.769C101.752 117.23 102.292 116.823 102.915 116.604L110.992 113.979C113.42 113.146 115.621 111.761 117.423 109.933C119.225 108.105 120.578 105.883 121.376 103.444L124.001 95.3743C124.219 94.7488 124.626 94.2065 125.165 93.8227C125.705 93.4389 126.351 93.2328 127.014 93.2328C127.676 93.2328 128.322 93.4389 128.862 93.8227C129.402 94.2065 129.809 94.7488 130.026 95.3743M113.978 47.9912C117.478 47.9912 120.835 49.3816 123.31 51.8567C125.785 54.3317 127.176 57.6886 127.176 61.1888C127.176 64.689 125.785 68.0459 123.31 70.5209C120.835 72.9959 117.478 74.3864 113.978 74.3864H57.4171C50.9166 74.3864 44.6825 76.9687 40.086 81.5651C35.4895 86.1616 32.9072 92.3958 32.9072 98.8962C32.9072 105.397 35.4895 111.631 40.086 116.227C44.6825 120.824 50.9166 123.406 57.4171 123.406H93.9178C93.4599 122.192 93.2298 120.903 93.2391 119.605C93.2391 116.287 94.7776 113.708 96.3009 112.094H57.4171C53.9168 112.094 50.56 110.703 48.0849 108.228C45.6099 105.753 44.2195 102.396 44.2195 98.8962C44.2195 95.396 45.6099 92.0391 48.0849 89.5641C50.56 87.0891 53.9168 85.6986 57.4171 85.6986H113.978C120.479 85.6986 126.713 83.1163 131.309 78.5198C135.906 73.9234 138.488 67.6892 138.488 61.1888C138.488 54.6884 135.906 48.4542 131.309 43.8577C126.713 39.2612 120.479 36.679 113.978 36.679H91.3537C89.8536 36.679 88.415 37.2749 87.3543 38.3356C86.2935 39.3963 85.6976 40.835 85.6976 42.3351C85.6976 43.8352 86.2935 45.2738 87.3543 46.3345C88.415 47.3953 89.8536 47.9912 91.3537 47.9912H113.978Z" fill="white"/>
</svg>
