<svg width="1134" height="338" viewBox="0 0 1134 338" fill="none" xmlns="http://www.w3.org/2000/svg">
<path d="M105.856 53.2462C104.336 56.9744 79.8998 117.222 51.5482 187.131C23.1966 257.039 0 314.301 0 314.378C0 314.455 18.6463 314.521 41.435 314.518H82.87C120.993 113.968 132.097 55.6156 132.144 55.4585C132.191 55.3015 131.408 54.9304 130.407 54.6364C129.404 54.3424 127.106 53.6087 125.301 53.0092C123.496 52.4097 120.331 51.2565 118.268 50.4457C116.206 49.6321 113.278 48.4046 111.763 47.7167C110.249 47.0287 108.92 46.4663 108.812 46.4663C108.704 46.4663 107.372 49.518 105.856 53.2462ZM226.691 48.4988C224.952 49.2839 221.787 50.5685 219.658 51.3564C217.53 52.1443 213.997 53.3404 211.805 54.0169C209.613 54.6935 207.529 55.3272 207.175 55.4243C206.821 55.5213 206.528 55.7611 206.526 55.9581C206.521 56.1551 217.572 114.413 231.082 185.421L255.643 314.526L338.747 314.521C335.453 306.445 311.059 246.305 282.412 175.663C253.763 105.024 230.219 47.1914 230.09 47.1486C229.961 47.1086 228.43 47.7138 226.691 48.4988ZM140.073 60.5256C139.735 62.2926 130.97 108.379 120.594 162.937C110.218 217.499 101.68 262.363 101.617 262.637C101.512 263.111 103.127 263.136 133.155 263.136H164.802L164.685 60.3115C159.598 59.9889 155.957 59.6349 153.315 59.3152C150.673 58.9955 146.822 58.4131 144.759 58.022C142.696 57.631 140.935 57.3112 140.848 57.3112C140.762 57.3141 140.412 58.7586 140.073 60.5256ZM194.574 58.1962C193.091 58.4845 189.823 58.9784 187.307 59.2952C184.792 59.6093 181.1 59.9404 179.102 60.0317C177.105 60.1202 175.021 60.2544 174.472 60.3258L173.476 60.4542V263.136H237.006C236.659 261.698 228.107 216.834 217.778 162.509C207.449 108.184 198.74 62.3555 198.426 60.6683C198.063 58.7043 197.751 57.6138 197.563 57.6367C197.402 57.6566 196.058 57.9079 194.574 58.1962Z" fill="white"/>
<path d="M459.247 272.162C446.092 272.162 435.551 268.739 427.622 261.891C419.873 255.043 415.999 245.853 415.999 234.321V225.671C415.999 214.319 420.054 205.218 428.163 198.371C436.272 191.523 446.993 188.1 460.328 188.1H477.627C483.574 188.1 489.701 189.001 496.007 190.803C502.314 192.605 507.72 195.037 512.225 198.101V175.666C512.225 168.098 509.883 161.971 505.198 157.286C500.512 152.42 494.296 149.988 486.547 149.988H464.923C457.175 149.988 450.958 151.79 446.273 155.393C441.587 158.997 439.245 163.773 439.245 169.719H419.783C419.783 158.727 423.928 149.897 432.217 143.23C440.506 136.383 451.408 132.959 464.923 132.959H486.547C499.882 132.959 510.604 136.923 518.713 144.852C527.002 152.6 531.146 162.872 531.146 175.666V270H512.766V251.079C508.621 257.566 503.125 262.702 496.278 266.486C489.61 270.27 482.673 272.162 475.465 272.162H459.247ZM476.005 255.134C484.475 255.134 492.043 252.521 498.71 247.295C505.378 242.069 509.883 235.132 512.225 226.482V216.481C508.621 213.057 503.576 210.354 497.089 208.372C490.782 206.21 484.295 205.128 477.627 205.128H460.328C452.94 205.128 446.903 207.02 442.218 210.805C437.713 214.589 435.461 219.544 435.461 225.671V234.321C435.461 240.628 437.623 245.673 441.948 249.457C446.273 253.242 452.039 255.134 459.247 255.134H476.005ZM599.171 272.162C584.034 272.162 571.87 267.477 562.68 258.107C553.49 248.737 548.895 236.393 548.895 221.076V184.045C548.895 168.728 553.49 156.385 562.68 147.014C572.051 137.644 584.394 132.959 599.711 132.959H621.876C637.193 132.959 649.446 137.644 658.636 147.014C668.007 156.385 672.692 168.728 672.692 184.045V221.076C672.692 236.393 668.007 248.737 658.636 258.107C649.266 267.477 636.832 272.162 621.335 272.162H599.171ZM621.335 254.863C631.066 254.863 638.814 251.8 644.581 245.673C650.347 239.366 653.23 231.167 653.23 221.076V184.045C653.23 173.954 650.347 165.845 644.581 159.718C638.814 153.411 631.246 150.258 621.876 150.258H599.711C590.341 150.258 582.773 153.411 577.006 159.718C571.24 165.845 568.357 173.954 568.357 184.045V221.076C568.357 231.347 571.15 239.546 576.736 245.673C582.322 251.8 589.8 254.863 599.171 254.863H621.335ZM692.238 135.121H711.159V155.123C715.303 148.636 720.709 143.32 727.376 139.176C734.044 135.031 740.711 132.959 747.379 132.959H765.759C778.193 132.959 788.194 137.193 795.762 145.663C803.511 154.132 807.385 165.214 807.385 178.909V270H787.923V178.369C787.923 170.08 785.851 163.322 781.706 158.096C777.562 152.871 772.066 150.258 765.218 150.258H747.919C739.45 150.258 731.701 153.592 724.674 160.259C717.826 166.926 713.501 175.486 711.699 185.937V270H692.238V135.121ZM845.298 114.849C840.974 114.849 837.46 113.497 834.757 110.794C832.054 108.091 830.702 104.577 830.702 100.253C830.702 95.9279 832.054 92.414 834.757 89.711C837.46 87.008 840.974 85.6565 845.298 85.6565C849.623 85.6565 853.137 87.008 855.84 89.711C858.543 92.414 859.894 95.9279 859.894 100.253C859.894 104.577 858.543 108.091 855.84 110.794C853.137 113.497 849.623 114.849 845.298 114.849ZM835.568 135.121H855.029V270H835.568V135.121ZM928.487 272.162C913.711 272.162 901.817 267.748 892.808 258.918C883.798 249.908 879.293 238.015 879.293 223.238V184.586C879.293 169.089 883.798 156.655 892.808 147.285C901.817 137.734 913.621 132.959 928.217 132.959H950.381C964.256 132.959 975.429 136.833 983.898 144.582C992.367 152.33 996.602 162.511 996.602 175.125H977.681C977.681 167.737 975.158 161.791 970.113 157.286C965.247 152.6 958.67 150.258 950.381 150.258H928.217C919.387 150.258 912.269 153.411 906.863 159.718C901.457 166.025 898.754 174.314 898.754 184.586V223.238C898.754 232.789 901.457 240.447 906.863 246.214C912.449 251.98 919.657 254.863 928.487 254.863H950.651C959.121 254.863 965.878 251.89 970.924 245.943C976.15 239.997 978.762 232.068 978.762 222.157H997.683C997.683 237.114 993.359 249.187 984.709 258.377C976.059 267.567 964.707 272.162 950.651 272.162H928.487ZM1051.78 272.162C1038.08 272.162 1027.09 268.288 1018.8 260.54C1010.51 252.791 1006.37 242.61 1006.37 229.996H1025.29C1025.29 237.564 1027.72 243.691 1032.59 248.376C1037.45 253.061 1043.85 255.404 1051.78 255.404H1075.29C1083.04 255.404 1089.35 253.872 1094.22 250.809C1099.08 247.565 1101.51 243.421 1101.51 238.375V229.185C1101.51 225.761 1100.16 222.788 1097.46 220.265C1094.76 217.562 1091.24 215.76 1086.92 214.859L1040.16 206.75C1030.79 205.128 1023.22 201.615 1017.45 196.209C1011.86 190.622 1009.07 184.135 1009.07 176.747V167.827C1009.07 157.376 1013.04 148.996 1020.96 142.689C1028.89 136.202 1039.35 132.959 1052.32 132.959H1075.57C1088.18 132.959 1098.36 136.563 1106.11 143.771C1113.86 150.798 1117.73 160.169 1117.73 171.882H1098.81C1098.63 165.214 1096.38 159.898 1092.05 155.934C1087.91 151.79 1082.41 149.717 1075.57 149.717H1052.32C1045.11 149.717 1039.35 151.429 1035.02 154.853C1030.7 158.096 1028.53 162.421 1028.53 167.827V175.666C1028.53 179.09 1029.97 182.153 1032.86 184.856C1035.92 187.559 1039.8 189.271 1044.48 189.992L1090.97 198.101C1099.98 199.722 1107.19 203.236 1112.6 208.642C1118.18 214.048 1120.98 220.535 1120.98 228.104V238.916C1120.98 248.827 1116.74 256.845 1108.27 262.972C1099.98 269.099 1088.99 272.162 1075.29 272.162H1051.78Z" fill="white"/>
</svg>
